<svg width="50" height="50" viewBox="0 0 50 50" fill="none" xmlns="http://www.w3.org/2000/svg">
<g filter="url(#filter0_d_0_1)">
<path d="M8.27014 12.8337C19.8187 -7.21399 40.3935 -1.02316 33.9302 19.752C27.4669 40.5271 46.4501 20.6829 45.5347 32.7186C44.6194 44.7544 8.6973 43.8286 20.2408 31.7826C31.7792 19.7367 33.1064 15.601 21.2375 23.3535C9.36855 31.1061 -0.573079 28.1811 8.27014 12.8337Z" fill="#999999"/>
<path d="M8.70337 13.0833L8.7034 13.0833C14.4179 3.16327 22.2495 -0.0852544 27.7182 1.46532C30.4484 2.23941 32.6565 4.21643 33.8036 7.26345C34.9544 10.3202 35.0456 14.4837 33.4528 19.6035C32.6396 22.2174 32.217 24.2215 32.1119 25.7458C32.0075 27.2607 32.2115 28.372 32.733 29.1328C33.2727 29.9199 34.0852 30.2382 34.9626 30.3093C35.8234 30.379 36.7985 30.217 37.7617 30.0004C38.2281 29.8955 38.7036 29.7749 39.1715 29.6562L39.2301 29.6413C39.7196 29.5172 40.2004 29.3959 40.6685 29.2929C41.6138 29.0849 42.4571 28.9641 43.1485 29.034C43.8201 29.1019 44.3001 29.3427 44.6135 29.8289C44.9458 30.3443 45.1472 31.2201 45.0362 32.6807C44.8287 35.4089 42.6311 37.4929 39.3765 38.8842C36.141 40.2673 32.0008 40.8962 28.2309 40.7815C26.3488 40.7243 24.574 40.482 23.0631 40.064C21.5456 39.6441 20.3293 39.0566 19.53 38.3327C18.7455 37.6222 18.372 36.7941 18.4731 35.827C18.5775 34.8291 19.1956 33.596 20.6018 32.1286L20.6019 32.1285C23.4914 29.1119 25.7494 26.5825 27.3244 24.605C28.1116 23.6167 28.734 22.759 29.1806 22.0423C29.6185 21.3395 29.9178 20.7251 30.0085 20.2346C30.0543 19.9874 30.059 19.7096 29.9399 19.4578C29.809 19.1813 29.5698 19.0202 29.3028 18.9528C29.055 18.8901 28.7781 18.9046 28.5003 18.9551C28.2161 19.0067 27.8932 19.1032 27.5352 19.2382C26.1153 19.7734 23.9333 20.9955 20.9641 22.9349C18.0321 24.85 15.239 26.0921 12.8467 26.6518C10.4402 27.2148 8.51241 27.0717 7.23983 26.3249C6.00975 25.603 5.27701 24.2458 5.39574 22.0695C5.51571 19.8706 6.5101 16.8897 8.70337 13.0833Z" stroke="black"/>
</g>
<g filter="url(#filter1_d_0_1)">
<path d="M8.27014 12.8337C19.8187 -7.21399 40.3935 -1.02316 33.9302 19.752C27.4669 40.5271 46.4501 20.6829 45.5347 32.7186C44.6194 44.7544 8.6973 43.8286 20.2408 31.7826C31.7792 19.7367 33.1064 15.601 21.2375 23.3535C9.36855 31.1061 -0.573079 28.1811 8.27014 12.8337Z" fill="#999999"/>
<path d="M8.70337 13.0833L8.7034 13.0833C14.4179 3.16327 22.2495 -0.0852544 27.7182 1.46532C30.4484 2.23941 32.6565 4.21643 33.8036 7.26345C34.9544 10.3202 35.0456 14.4837 33.4528 19.6035C32.6396 22.2174 32.217 24.2215 32.1119 25.7458C32.0075 27.2607 32.2115 28.372 32.733 29.1328C33.2727 29.9199 34.0852 30.2382 34.9626 30.3093C35.8234 30.379 36.7985 30.217 37.7617 30.0004C38.2281 29.8955 38.7036 29.7749 39.1715 29.6562L39.2301 29.6413C39.7196 29.5172 40.2004 29.3959 40.6685 29.2929C41.6138 29.0849 42.4571 28.9641 43.1485 29.034C43.8201 29.1019 44.3001 29.3427 44.6135 29.8289C44.9458 30.3443 45.1472 31.2201 45.0362 32.6807C44.8287 35.4089 42.6311 37.4929 39.3765 38.8842C36.141 40.2673 32.0008 40.8962 28.2309 40.7815C26.3488 40.7243 24.574 40.482 23.0631 40.064C21.5456 39.6441 20.3293 39.0566 19.53 38.3327C18.7455 37.6222 18.372 36.7941 18.4731 35.827C18.5775 34.8291 19.1956 33.596 20.6018 32.1286L20.6019 32.1285C23.4914 29.1119 25.7494 26.5825 27.3244 24.605C28.1116 23.6167 28.734 22.759 29.1806 22.0423C29.6185 21.3395 29.9178 20.7251 30.0085 20.2346C30.0543 19.9874 30.059 19.7096 29.9399 19.4578C29.809 19.1813 29.5698 19.0202 29.3028 18.9528C29.055 18.8901 28.7781 18.9046 28.5003 18.9551C28.2161 19.0067 27.8932 19.1032 27.5352 19.2382C26.1153 19.7734 23.9333 20.9955 20.9641 22.9349C18.0321 24.85 15.239 26.0921 12.8467 26.6518C10.4402 27.2148 8.51241 27.0717 7.23983 26.3249C6.00975 25.603 5.27701 24.2458 5.39574 22.0695C5.51571 19.8706 6.5101 16.8897 8.70337 13.0833Z" stroke="black"/>
</g>
<defs>
<filter id="filter0_d_0_1" x="0.883301" y="0.595459" width="48.6836" height="48.6993" filterUnits="userSpaceOnUse" color-interpolation-filters="sRGB">
<feFlood flood-opacity="0" result="BackgroundImageFix"/>
<feColorMatrix in="SourceAlpha" type="matrix" values="0 0 0 0 0 0 0 0 0 0 0 0 0 0 0 0 0 0 127 0" result="hardAlpha"/>
<feOffset dy="4"/>
<feGaussianBlur stdDeviation="2"/>
<feComposite in2="hardAlpha" operator="out"/>
<feColorMatrix type="matrix" values="0 0 0 0 0 0 0 0 0 0 0 0 0 0 0 0 0 0 0.25 0"/>
<feBlend mode="normal" in2="BackgroundImageFix" result="effect1_dropShadow_0_1"/>
<feBlend mode="normal" in="SourceGraphic" in2="effect1_dropShadow_0_1" result="shape"/>
</filter>
<filter id="filter1_d_0_1" x="0.883301" y="0.595459" width="48.6836" height="48.6993" filterUnits="userSpaceOnUse" color-interpolation-filters="sRGB">
<feFlood flood-opacity="0" result="BackgroundImageFix"/>
<feColorMatrix in="SourceAlpha" type="matrix" values="0 0 0 0 0 0 0 0 0 0 0 0 0 0 0 0 0 0 127 0" result="hardAlpha"/>
<feOffset dy="4"/>
<feGaussianBlur stdDeviation="2"/>
<feComposite in2="hardAlpha" operator="out"/>
<feColorMatrix type="matrix" values="0 0 0 0 0 0 0 0 0 0 0 0 0 0 0 0 0 0 0.25 0"/>
<feBlend mode="normal" in2="BackgroundImageFix" result="effect1_dropShadow_0_1"/>
<feBlend mode="normal" in="SourceGraphic" in2="effect1_dropShadow_0_1" result="shape"/>
</filter>
</defs>
</svg>
